CddbId:b012811c:[150, 29627, 31910, 44785, 53247, 65360, 74567, 88577, 115252, 131927, 141882, 146035, 151317, 157040, 174885, 186590, 203817, 216122, 226535, 242170, 252207, 262422, 270332, 283050, 300917, 317650, 338750, 341627]:355425:74:b012811c 28 150 29627 31910 44785 53247 65360 74567 88577 115252 131927 141882 146035 151317 157040 174885 186590 203817 216122 226535 242170 252207 262422 270332 283050 300917 317650 338750 341627 4739: 28 0 0 0 0 0 0 0 0 0 0 0 0 0 0 0 0 0 0 0 0 0 0 0 0 0 0 0 0 4739
num_tracks: 28
offsets: [150, 29627, 31910, 44785, 53247, 65360, 74567, 88577, 115252, 131927, 141882, 146035, 151317, 157040, 174885, 186590, 203817, 216122, 226535, 242170, 252207, 262422, 270332, 283050, 300917, 317650, 338750, 341627]
extents: [0, 0, 0, 0, 0, 0, 0, 0, 0, 0, 0, 0, 0, 0, 0, 0, 0, 0, 0, 0, 0, 0, 0, 0, 0, 0, 0, 0]
total_length: 4739
cddb: [2954002716, 28, 150, 29627, 31910, 44785, 53247, 65360, 74567, 88577, 115252, 131927, 141882, 146035, 151317, 157040, 174885, 186590, 203817, 216122, 226535, 242170, 252207, 262422, 270332, 283050, 300917, 317650, 338750, 341627, 4739]
musicbrainz: ('28 150 29627 31910 44785 53247 65360 74567 88577 115252 131927 141882 146035 151317 157040 174885 186590 203817 216122 226535 242170 252207 262422 270332 283050 300917 317650 338750 341627 355435', 'HcInv7XbRBs9nq2sC52dtgjJyrU-')

CD record:
Device type    : Removable CD-ROM
Version        : 0
Response Format: 1
Vendor_info    : 'SAMSUNG '
Identification : 'CD-ROM SC-148A  '
Revision       : 'B403'
Device seems to be: Generic mmc CD-ROM.
Using generic SCSI-3/mmc   CD-ROM driver (mmc_cd).
Driver flags   : MMC-2 SWABAUDIO 
Supported modes: 
first: 1 last 28
track:   1 lba:         0 (        0) 00:02:00 adr: 1 control: 0 mode: -1
track:   2 lba:     29477 (   117908) 06:35:02 adr: 1 control: 0 mode: -1
track:   3 lba:     31760 (   127040) 07:05:35 adr: 1 control: 0 mode: -1
track:   4 lba:     44635 (   178540) 09:57:10 adr: 1 control: 0 mode: -1
track:   5 lba:     53097 (   212388) 11:49:72 adr: 1 control: 0 mode: -1
track:   6 lba:     65210 (   260840) 14:31:35 adr: 1 control: 0 mode: -1
track:   7 lba:     74417 (   297668) 16:34:17 adr: 1 control: 0 mode: -1
track:   8 lba:     88427 (   353708) 19:41:02 adr: 1 control: 0 mode: -1
track:   9 lba:    115102 (   460408) 25:36:52 adr: 1 control: 0 mode: -1
track:  10 lba:    131777 (   527108) 29:19:02 adr: 1 control: 0 mode: -1
track:  11 lba:    141732 (   566928) 31:31:57 adr: 1 control: 0 mode: -1
track:  12 lba:    145885 (   583540) 32:27:10 adr: 1 control: 0 mode: -1
track:  13 lba:    151167 (   604668) 33:37:42 adr: 1 control: 0 mode: -1
track:  14 lba:    156890 (   627560) 34:53:65 adr: 1 control: 0 mode: -1
track:  15 lba:    174735 (   698940) 38:51:60 adr: 1 control: 0 mode: -1
track:  16 lba:    186440 (   745760) 41:27:65 adr: 1 control: 0 mode: -1
track:  17 lba:    203667 (   814668) 45:17:42 adr: 1 control: 0 mode: -1
track:  18 lba:    215972 (   863888) 48:01:47 adr: 1 control: 0 mode: -1
track:  19 lba:    226385 (   905540) 50:20:35 adr: 1 control: 0 mode: -1
track:  20 lba:    242020 (   968080) 53:48:70 adr: 1 control: 0 mode: -1
track:  21 lba:    252057 (  1008228) 56:02:57 adr: 1 control: 0 mode: -1
track:  22 lba:    262272 (  1049088) 58:18:72 adr: 1 control: 0 mode: -1
track:  23 lba:    270182 (  1080728) 60:04:32 adr: 1 control: 0 mode: -1
track:  24 lba:    282900 (  1131600) 62:54:00 adr: 1 control: 0 mode: -1
track:  25 lba:    300767 (  1203068) 66:52:17 adr: 1 control: 0 mode: -1
track:  26 lba:    317500 (  1270000) 70:35:25 adr: 1 control: 0 mode: -1
track:  27 lba:    338600 (  1354400) 75:16:50 adr: 1 control: 0 mode: -1
track:  28 lba:    341477 (  1365908) 75:55:02 adr: 1 control: 0 mode: -1
track:lout lba:    355285 (  1421140) 78:59:10 adr: 1 control: 0 mode: -1
